<svg id="Component_8" data-name="Component 8" xmlns="http://www.w3.org/2000/svg" width="66" height="38" viewBox="0 0 66 38">
  <rect id="Rectangle_805" data-name="Rectangle 805" width="66" height="38" rx="19" fill="#0d6efc"/>
  <path id="Path_429" data-name="Path 429" d="M64.79,35.511A4.544,4.544,0,0,1,66.955,31.7a4.656,4.656,0,0,0-3.667-1.982c-1.542-.162-3.039.923-3.824.923-.8,0-2.011-.907-3.315-.88a4.882,4.882,0,0,0-4.109,2.506c-1.777,3.075-.452,7.595,1.251,10.081.852,1.218,1.847,2.577,3.149,2.529,1.274-.052,1.75-.811,3.288-.811s1.971.811,3.3.781c1.368-.021,2.229-1.223,3.05-2.451a10.048,10.048,0,0,0,1.4-2.84A4.4,4.4,0,0,1,64.79,35.511ZM62.28,28.08A4.472,4.472,0,0,0,63.3,24.875,4.558,4.558,0,0,0,60.358,26.4a4.256,4.256,0,0,0-1.051,3.087A3.765,3.765,0,0,0,62.28,28.08Z" transform="translate(-26.195 -15.875)" fill="#fff"/>
</svg>
