<svg id="Component_9" data-name="Component 9" xmlns="http://www.w3.org/2000/svg" xmlns:xlink="http://www.w3.org/1999/xlink" width="66" height="38" viewBox="0 0 66 38">
  <defs>
    <clipPath id="clip-path">
      <path id="Path_435" data-name="Path 435" d="M476.589,415.683l-4.251-2.415-8.2-4.66c-.455-.259-.909-.1-.909.439v18.985c0,.405.324.58.72.355l8.39-4.767,4.251-2.415,4.087-2.322c.48-.273.433-.646.029-.861S476.589,415.683,476.589,415.683Z" transform="translate(-463.228 -408.486)"/>
    </clipPath>
    <linearGradient id="linear-gradient" x1="1.441" y1="1.519" x2="1.441" y2="1.436" gradientUnits="objectBoundingBox">
      <stop offset="0" stop-color="#257cb0"/>
      <stop offset="0.286" stop-color="#4a93b5"/>
      <stop offset="0.767" stop-color="#78bcbb"/>
      <stop offset="1" stop-color="#89cfbd"/>
    </linearGradient>
    <linearGradient id="linear-gradient-2" x1="1.103" y1="2.982" x2="1.187" y2="2.982" gradientUnits="objectBoundingBox">
      <stop offset="0" stop-color="#52c1ad"/>
      <stop offset="1" stop-color="#dee89a"/>
    </linearGradient>
    <clipPath id="clip-path-3">
      <path id="Path_439" data-name="Path 439" d="M476.377,415.683l-4.184-2.415-8.07-4.66c-.448-.259-.895-.1-.895.439v18.985c0,.405.319.58.708.355l8.257-4.767,4.184-2.415,4.022-2.322c.472-.273.427-.646.028-.861S476.377,415.683,476.377,415.683Z" transform="translate(-463.228 -408.486)"/>
    </clipPath>
    <linearGradient id="linear-gradient-3" x1="1.145" y1="1.94" x2="1.145" y2="1.857" gradientUnits="objectBoundingBox">
      <stop offset="0" stop-color="#ec413d"/>
      <stop offset="0.167" stop-color="#da4452"/>
      <stop offset="0.575" stop-color="#b0487a"/>
      <stop offset="0.862" stop-color="#954a92"/>
      <stop offset="1" stop-color="#8a4a9d"/>
    </linearGradient>
    <linearGradient id="linear-gradient-4" x1="0.704" y1="4.18" x2="0.704" y2="4.097" gradientUnits="objectBoundingBox">
      <stop offset="0" stop-color="#f58879"/>
      <stop offset="0.119" stop-color="#f69079"/>
      <stop offset="0.713" stop-color="#fcb877"/>
      <stop offset="1" stop-color="#fec874"/>
    </linearGradient>
  </defs>
  <g id="Rectangle_806" data-name="Rectangle 806" fill="#eff3f7" stroke="#d2d5da" stroke-width="1">
    <rect width="66" height="38" rx="19" stroke="none"/>
    <rect x="0.5" y="0.5" width="65" height="37" rx="18.5" fill="none"/>
  </g>
  <g id="Group_708" data-name="Group 708" transform="translate(-1120.676 -1021.229)">
    <g id="Group_168" data-name="Group 168" transform="translate(1144.676 1030.229)" clip-path="url(#clip-path)">
      <path id="Path_434" data-name="Path 434" d="M463.24,387.346V407.9l10.532-10.277Z" transform="translate(-463.24 -387.666)" fill="url(#linear-gradient)"/>
    </g>
    <g id="Group_169" data-name="Group 169" transform="translate(1144.676 1030.229)" clip-path="url(#clip-path)">
      <path id="Path_436" data-name="Path 436" d="M476.6,389.994l-4.251-2.416L463.24,382.4v.075l10.532,10.277Z" transform="translate(-463.24 -382.796)" fill="url(#linear-gradient-2)"/>
    </g>
    <g id="Group_170" data-name="Group 170" transform="translate(1144.676 1030.229)" clip-path="url(#clip-path-3)">
      <path id="Path_438" data-name="Path 438" d="M463.24,1077.448v.075l8.965-5.177,4.184-2.415-2.784-2.76Z" transform="translate(-463.24 -1057.212)" fill="url(#linear-gradient-3)"/>
    </g>
    <g id="Group_171" data-name="Group 171" transform="translate(1144.676 1030.229)" clip-path="url(#clip-path)">
      <path id="Path_440" data-name="Path 440" d="M1151.677,884.566l-2.829,2.761,2.829,2.76,4.859-2.76Z" transform="translate(-1138.316 -877.368)" fill="url(#linear-gradient-4)"/>
    </g>
  </g>
</svg>
